<?xml version="1.0" encoding="utf-8"?>
<svg viewBox="0 0 738 852" xmlns="http://www.w3.org/2000/svg">
  <defs>
    <style>.cls-1{fill:none;}.cls-2{isolation:isolate;}.cls-12,.cls-3{opacity:0.94;}.cls-4{opacity:0.25;mix-blend-mode:multiply;}.cls-5{clip-path:url(#clip-path);}.cls-6{clip-path:url(#clip-path-3);}.cls-7{clip-path:url(#clip-path-5);}.cls-8{opacity:0.95;}.cls-9{clip-path:url(#clip-path-7);}.cls-10,.cls-12,.cls-13{fill:#fff;}.cls-11{fill:#141227;}.cls-12{font-size:119.7px;letter-spacing:-0.02em;}.cls-12,.cls-13{font-family:MyriadPro-Regular, Myriad Pro;}.cls-13{font-size:25px;}.cls-14{letter-spacing:0.01em;}.cls-15{letter-spacing:-0.04em;}.cls-16{letter-spacing:-0.02em;}.cls-17{letter-spacing:-0.01em;}.cls-18{letter-spacing:0em;}.cls-19{fill:#db1f26;}.cls-20{fill:#00a5dc;}.cls-21{fill:#36a85d;}.cls-22{fill:#b57ab4;}.cls-23{fill:#f7a238;}.cls-24{fill:#fff34d;}.cls-25{opacity:0.4;}.cls-26{fill:#a65628;}.cls-27{fill:#164f86;}.cls-28{fill:#404040;}</style>
    <clipPath id="clip-path">
      <path id="SVGID" class="cls-1" d="M5496.36-3513.66l-338.13,195.22-338.12-195.22v-390.43l338.12-195.22h0l338.13,195.22Z"/>
    </clipPath>
    <clipPath id="clip-path-3">
      <polygon id="SVGID-3" data-name="SVGID" class="cls-1" points="5002.16 -3729.89 5309.82 -3729.89 11888.74 451.38 -1576.76 451.38 5002.16 -3729.89"/>
    </clipPath>
    <clipPath id="clip-path-5">
      <path id="SVGID-5" data-name="SVGID" class="cls-1" d="M5494.86-3515.16l-338.13,195.22-338.12-195.22v-390.43l338.12-195.22h0l338.13,195.22Z"/>
    </clipPath>
    <clipPath id="clip-path-7">
      <polygon id="SVGID-7" data-name="SVGID" class="cls-1" points="5000.66 -3731.39 5308.32 -3731.39 11887.24 449.88 -1578.26 449.88 5000.66 -3731.39"/>
    </clipPath>
  </defs>
  <title>RStudio_Hex 2018 v4 (fonts)</title>
  <g class="cls-2">
    <g id="Layer_1" data-name="Layer 1">
      <g class="cls-3">
        <g class="cls-4">
          <g class="cls-5">
            <g class="cls-6">
              <polyline points="23526.62 12903.81 23526.62 12903.81 -9241.38 -19864.19 -9241.38 -19864.19 23526.62 12903.81"/>
              <polyline points="-9241.38 12903.81 -9241.38 12903.81 23526.62 -19864.19 23526.62 -19864.19 -9241.38 12903.81"/>
              <polyline points="830.75 -321.68 -360.4 -321.68 -1183.44 201.41 185.43 201.41 830.75 -321.68"/>
            </g>
          </g>
        </g>
        <g class="cls-7">
          <g class="cls-8">
            <g class="cls-2">
              <g class="cls-9">
                <polyline class="cls-10" points="23525.12 12902.31 23525.12 12902.31 -9242.88 -19865.69 -9242.88 -19865.69 23525.12 12902.31"/>
                <polyline class="cls-10" points="-9242.88 12902.31 -9242.88 12902.31 23525.12 -19865.69 23525.12 -19865.69 -9242.88 12902.31"/>
                <polyline class="cls-10" points="829.25 -323.18 -361.9 -323.18 -1184.94 199.91 183.93 199.91 829.25 -323.18"/>
              </g>
            </g>
          </g>
        </g>
      </g>
      <polygon class="cls-11" points="371.01 8.41 729.71 215.49 729.71 637.64 371.01 846.05 4.29 637.64 4.29 215.49 371.01 8.41"/>
      <text class="cls-12" transform="matrix(1, 0, 0, 1.06, 114.45842, 603.305176)" style="font-size: 81.1321px; letter-spacing: -2.394px; white-space: pre;">RinteRfaceVerse</text>
      <text class="cls-13" transform="matrix(0.86, -0.5, 0.5, 0.86, 369.18, 811.04)" style="white-space: pre;">https://rinterface.com</text>
      <path class="cls-28" d="M707.11,197.23,429.31,36.84,369,2,308.69,36.84,30.87,197.24,1.59,214.15V638.4l29.28,16.91L312.15,817.7,369,850.53l56.85-32.83L707.11,655.32l29.3-16.92V214.15Zm0,425.26L369,817.7,30.87,622.49V232.06L369,36.84h0L707.11,232.06Z"/>
      <path d="M 506.062 264.495 C 506.062 264.42 506.032 264.355 506.027 264.281 C 506.007 263.936 505.962 263.6 505.867 263.274 C 505.822 263.134 505.752 263.009 505.692 262.874 C 505.587 262.622 505.487 262.38 505.337 262.152 C 505.247 262.012 505.132 261.891 505.033 261.765 C 504.873 261.565 504.708 261.369 504.518 261.197 C 504.388 261.08 504.238 260.978 504.093 260.875 C 503.958 260.777 503.843 260.661 503.698 260.572 C 503.614 260.526 503.519 260.502 503.434 260.46 C 503.364 260.423 503.309 260.367 503.234 260.335 L 368.331 199.773 C 366.912 199.135 365.258 199.158 363.859 199.838 L 238.948 260.4 C 238.893 260.428 238.858 260.47 238.803 260.498 C 238.748 260.526 238.683 260.54 238.624 260.572 C 238.454 260.67 238.324 260.801 238.169 260.917 C 238.024 261.024 237.869 261.122 237.734 261.243 C 237.544 261.42 237.394 261.616 237.24 261.816 C 237.14 261.947 237.02 262.063 236.935 262.203 C 236.78 262.45 236.675 262.715 236.575 262.985 C 236.53 263.102 236.465 263.204 236.43 263.326 C 236.32 263.708 236.255 264.113 236.255 264.527 L 236.255 413.603 C 236.255 415.368 237.324 416.98 239.018 417.772 L 368.925 478.334 C 369 478.367 369.08 478.353 369.155 478.385 C 369.799 478.646 370.469 478.823 371.159 478.823 C 371.848 478.823 372.523 478.646 373.162 478.381 C 373.237 478.348 373.322 478.362 373.392 478.329 L 503.299 417.767 C 504.993 416.98 506.062 415.368 506.062 413.603 L 506.062 264.527 C 506.062 264.523 506.062 264.518 506.062 264.509 C 506.062 264.504 506.062 264.499 506.062 264.495 Z M 366.247 209.174 L 489.724 264.607 L 371.159 319.881 L 252.249 264.448 L 366.247 209.174 Z M 246.248 272.065 L 366.162 327.968 L 366.162 466.627 L 246.248 410.724 L 246.248 272.065 Z M 496.069 410.724 L 376.155 466.627 L 376.155 327.968 L 496.069 272.065 L 496.069 410.724 Z" style="fill: rgb(255, 255, 255);"/>
      <rect x="162.685" y="369.19" width="102.281" height="89.924" transform="matrix(-0.015238, 0.999884, -0.993346, -0.444225, 719.835083, 341.28537)" style="fill: rgb(255, 255, 255);"/>
      <rect x="150.858" y="284.929" width="94.852" height="69.392" transform="matrix(0.904031, 0.427468, -1.159915, 0.557695, 560.772949, 1.058044)" style="fill: rgb(255, 255, 255);"/>
      <rect x="163.913" y="366.457" width="103.058" height="89.246" transform="matrix(0.001448, 0.999999, -0.999335, 0.460257, 847.347412, -35.006729)" style="fill: rgb(255, 255, 255);"/>
    </g>
  </g>
</svg>