<?xml version="1.0" encoding="utf-8"?>
<svg viewBox="0 0 66.897 71.034" xmlns="http://www.w3.org/2000/svg">
  <path d="M 60.103 21.234 C 60.103 21.218 60.097 21.204 60.096 21.188 C 60.092 21.114 60.083 21.042 60.064 20.972 C 60.055 20.942 60.041 20.915 60.029 20.886 C 60.008 20.832 59.988 20.78 59.958 20.731 C 59.94 20.701 59.917 20.675 59.897 20.648 C 59.865 20.605 59.832 20.563 59.794 20.526 C 59.768 20.501 59.738 20.479 59.709 20.457 C 59.682 20.436 59.659 20.411 59.63 20.392 C 59.613 20.382 59.594 20.377 59.577 20.368 C 59.563 20.36 59.552 20.348 59.537 20.341 L 32.537 7.341 C 32.253 7.204 31.922 7.209 31.642 7.355 L 6.642 20.355 C 6.631 20.361 6.624 20.37 6.613 20.376 C 6.602 20.382 6.589 20.385 6.577 20.392 C 6.543 20.413 6.517 20.441 6.486 20.466 C 6.457 20.489 6.426 20.51 6.399 20.536 C 6.361 20.574 6.331 20.616 6.3 20.659 C 6.28 20.687 6.256 20.712 6.239 20.742 C 6.208 20.795 6.187 20.852 6.167 20.91 C 6.158 20.935 6.145 20.957 6.138 20.983 C 6.116 21.065 6.103 21.152 6.103 21.241 L 6.103 53.241 C 6.103 53.62 6.317 53.966 6.656 54.136 L 32.656 67.136 C 32.671 67.143 32.687 67.14 32.702 67.147 C 32.831 67.203 32.965 67.241 33.103 67.241 C 33.241 67.241 33.376 67.203 33.504 67.146 C 33.519 67.139 33.536 67.142 33.55 67.135 L 59.55 54.135 C 59.889 53.966 60.103 53.62 60.103 53.241 L 60.103 21.241 C 60.103 21.24 60.103 21.239 60.103 21.237 C 60.103 21.236 60.103 21.235 60.103 21.234 Z M 32.12 9.359 L 56.833 21.258 L 33.103 33.123 L 9.304 21.224 L 32.12 9.359 Z M 8.103 22.859 L 32.103 34.859 L 32.103 64.623 L 8.103 52.623 L 8.103 22.859 Z M 58.103 52.623 L 34.103 64.623 L 34.103 34.859 L 58.103 22.859 L 58.103 52.623 Z" style="fill: rgb(25, 29, 77);"/>
  <rect x="34.921" y="73.892" width="21.955" height="17.998" transform="matrix(-0.014208, 0.999899, -0.993331, -0.47643, 102.888275, 37.717705)" style="fill: rgb(25, 29, 77);"/>
  <rect x="30.605" y="60.339" width="19.243" height="14.695" transform="matrix(0.891867, 0.452297, -1.09624, 0.565301, 71.05304, -35.314373)" style="fill: rgb(25, 29, 77);"/>
  <rect x="35.185" y="73.344" width="22.122" height="17.862" transform="matrix(0.00135, 0.999999, -0.999335, 0.493632, 128.409027, -43.055916)" style="fill: rgb(25, 29, 77);"/>
</svg>